<svg width="1024" height="1024" viewBox="0 0 1024 1024" fill="none" xmlns="http://www.w3.org/2000/svg">
<g clip-path="url(#clip0_110_9)">
<rect width="1024" height="1024" rx="256" fill="white"/>
<path d="M1024 0H0V1024H1024V0Z" fill="#0F1722"/>
<path d="M218.2 337C218.2 311.933 223.267 288.733 233.4 267.4C244.067 246.067 258.2 227.667 275.8 212.2C293.933 196.733 314.733 184.467 338.2 175.4C362.2 166.333 387.533 161.8 414.2 161.8C455.8 161.8 491.8 169.267 522.2 184.2C553.133 198.6 576.333 215.4 591.8 234.6C595.533 239.4 595.267 243.667 591 247.4L535.8 305C533.667 307.133 531 308.2 527.8 308.2C525.133 308.2 522.733 306.867 520.6 304.2C515.8 298.867 509.667 293.533 502.2 288.2C495.267 282.867 487 278.067 477.4 273.8C468.333 269 458.467 265.267 447.8 262.6C437.133 259.933 426.2 258.6 415 258.6C401.667 258.6 389.4 260.733 378.2 265C367.533 268.733 358.467 273.8 351 280.2C343.533 286.6 337.667 294.067 333.4 302.6C329.133 311.133 327 320.2 327 329.8C327 345.267 332.067 358.6 342.2 369.8C352.333 381 367.533 388.733 387.8 393L466.2 408.2C491.8 413 514.2 420.733 533.4 431.4C553.133 441.533 569.4 453.8 582.2 468.2C595.533 482.6 605.667 498.867 612.6 517C619.533 534.6 623 553.267 623 573C623 594.333 618.467 615.4 609.4 636.2C600.867 657 587.8 675.667 570.2 692.2C553.133 708.733 532.067 722.067 507 732.2C481.933 741.8 453.133 746.6 420.6 746.6C397.667 746.6 376.067 744.2 355.8 739.4C336.067 734.6 317.933 728.467 301.4 721C285.4 713 271.267 704.467 259 695.4C246.733 685.8 236.6 676.467 228.6 667.4C224.867 663.667 224.867 659.4 228.6 654.6L279 589.8C280.6 587.133 282.733 585.8 285.4 585.8C288.6 585.267 291.267 586.067 293.4 588.2C300.867 595.133 309.133 602.333 318.2 609.8C327.267 616.733 337.133 623.133 347.8 629C358.467 634.867 369.933 639.667 382.2 643.4C394.467 647.133 407.533 649 421.4 649C450.733 649 473.133 642.6 488.6 629.8C504.067 617 511.8 600.467 511.8 580.2C511.8 564.2 505.933 550.333 494.2 538.6C483 526.333 466.2 518.067 443.8 513.8L365.4 497.8C320.6 488.733 284.867 470.333 258.2 442.6C231.533 414.867 218.2 379.667 218.2 337Z" fill="url(#paint0_linear_110_9)"/>
<mask id="path-4-outside-1_110_9" maskUnits="userSpaceOnUse" x="365" y="127" width="447" height="770" fill="black">
<rect fill="white" x="365" y="127" width="447" height="770"/>
<path d="M403 848L649 527V174C649 170.667 650 168 652 166C654.667 163.333 657.667 162 661 162H764C772.667 162 777 166 777 174V563C777 572.333 774 580.667 768 588L570 846C561.333 856.667 550.333 862 537 862H410C406.667 862 404 860.667 402 858C400 854.667 400.333 851.333 403 848Z"/>
</mask>
<path d="M403 848L649 527V174C649 170.667 650 168 652 166C654.667 163.333 657.667 162 661 162H764C772.667 162 777 166 777 174V563C777 572.333 774 580.667 768 588L570 846C561.333 856.667 550.333 862 537 862H410C406.667 862 404 860.667 402 858C400 854.667 400.333 851.333 403 848Z" fill="#F3BC00"/>
<path d="M403 848L430.33 869.864L430.558 869.579L430.78 869.29L403 848ZM649 527L676.78 548.29L684 538.869V527H649ZM652 166L627.251 141.251L627.251 141.251L652 166ZM768 588L740.911 565.837L740.566 566.259L740.234 566.691L768 588ZM570 846L597.164 868.071L597.47 867.694L597.766 867.309L570 846ZM402 858L371.988 876.007L372.917 877.556L374 879L402 858ZM430.78 869.29L676.78 548.29L621.22 505.71L375.22 826.71L430.78 869.29ZM684 527V174H614V527H684ZM684 174C684 175.829 683.723 178.586 682.522 181.789C681.28 185.101 679.307 188.191 676.749 190.749L627.251 141.251C617.526 150.977 614 163.168 614 174H684ZM676.749 190.749C675.491 192.007 673.429 193.666 670.465 194.983C667.42 196.337 664.153 197 661 197V127C647.135 127 635.542 132.96 627.251 141.251L676.749 190.749ZM661 197H764V127H661V197ZM764 197C763.602 197 756.779 196.967 750.01 190.718C742.712 183.981 742 176.146 742 174H812C812 163.853 809.122 150.019 797.49 139.282C786.387 129.033 773.064 127 764 127V197ZM742 174V563H812V174H742ZM742 563C742 563.844 741.878 564.232 741.819 564.395C741.758 564.565 741.569 565.033 740.911 565.837L795.089 610.163C806.12 596.68 812 580.546 812 563H742ZM740.234 566.691L542.234 824.691L597.766 867.309L795.766 609.309L740.234 566.691ZM542.836 823.929C541.328 825.786 540.332 826.336 539.98 826.507C539.66 826.662 538.864 827 537 827V897C561.243 897 582.088 886.626 597.164 868.071L542.836 823.929ZM537 827H410V897H537V827ZM410 827C413.119 827 417.077 827.658 421.152 829.695C425.228 831.733 428.129 834.505 430 837L374 879C382.61 890.48 395.65 897 410 897V827ZM432.012 839.993C434.242 843.709 436.275 849.496 435.576 856.483C434.909 863.16 432.069 867.692 430.33 869.864L375.67 826.136C371.265 831.642 366.925 839.507 365.924 849.517C364.892 859.838 367.758 868.958 371.988 876.007L432.012 839.993Z" fill="url(#paint1_angular_110_9)" mask="url(#path-4-outside-1_110_9)"/>
</g>
<defs>
<linearGradient id="paint0_linear_110_9" x1="335.5" y1="425" x2="763.5" y2="758" gradientUnits="userSpaceOnUse">
<stop offset="0.182292" stop-color="#F3BC00"/>
<stop offset="0.411458" stop-color="#F3BC00" stop-opacity="0.7"/>
<stop offset="0.578884" stop-color="#0F1722"/>
<stop offset="0.755962" stop-color="#0F1722"/>
</linearGradient>
<radialGradient id="paint1_angular_110_9" cx="0" cy="0" r="1" gradientUnits="userSpaceOnUse" gradientTransform="translate(-84.4999 523) rotate(179.913) scale(327.5 190.071)">
<stop offset="0.151266" stop-color="#0F1722"/>
<stop offset="0.176819" stop-color="#888888"/>
<stop offset="0.215536" stop-color="#0F1722"/>
<stop offset="0.28862" stop-color="#0F1722"/>
<stop offset="0.338184" stop-color="#888888"/>
<stop offset="0.407857" stop-color="#0F1722"/>
<stop offset="0.561162" stop-color="#0F1722"/>
<stop offset="0.743126" stop-color="#888888"/>
<stop offset="0.821275" stop-color="white"/>
<stop offset="0.896135" stop-color="#888888"/>
<stop offset="0.995581" stop-color="#0F1722"/>
</radialGradient>
<clipPath id="clip0_110_9">
<rect width="1024" height="1024" rx="256" fill="white"/>
</clipPath>
</defs>
</svg>
